<?xml version="1.0" encoding="UTF-8" standalone="no"?>
<!-- Created with Inkscape (http://www.inkscape.org/) -->

<svg
   width="401.12338mm"
   height="482.70016mm"
   viewBox="0 0 401.12338 482.70016"
   version="1.1"
   id="svg347"
   xmlns="http://www.w3.org/2000/svg"
   xmlns:svg="http://www.w3.org/2000/svg">
  <defs
     id="defs344">
    <marker
       markerWidth="0.52499998"
       markerHeight="0.99999994"
       refX="0"
       refY="0"
       orient="auto-start-reverse"
       id="CapTriangle"
       viewBox="0 0 0.525 1"
       style="overflow:visible"
       preserveAspectRatio="xMidYMid">
      <path
         id="path7813"
         style="fill:context-stroke;stroke-linecap:butt"
         d="M 0,-1 1,0 0,1 -0.05,0 Z"
         transform="scale(0.5)" />
    </marker>
  </defs>
  <g
     id="layer1"
     transform="translate(-99.438312,-8.6499152)">
    <g
       id="g5663">
      <g
         id="g5767">
        <g
           id="g8423"
           transform="matrix(1.288634,0,0,1.288634,-86.5902,-10.820784)">
          <g
             aria-label="CAS, IIT Delhi"
             id="text3778"
             style="font-weight:bold;font-size:35.2777px;font-family:'DejaVu Sans';-inkscape-font-specification:'DejaVu Sans Bold';letter-spacing:2.11667px;fill:#001c38;stroke-width:4.59999;paint-order:markers stroke fill"
             transform="translate(-93.600305,60.956285)">
            <path
               d="m 273.4267,310.99143 q 0,-1.76388 0.28222,-3.49249 0.3175,-1.72861 1.16417,-3.59833 0.84666,-1.86971 2.08138,-3.24554 1.27,-1.41111 3.38666,-2.32833 2.15194,-0.91722 4.83305,-0.91722 8.39609,0 9.91303,8.39609 h -3.35138 q -0.56445,-2.75166 -2.2225,-4.12749 -1.65805,-1.37583 -4.72721,-1.37583 -3.73943,0 -5.92665,2.85749 -2.15194,2.8575 -2.15194,7.79637 0,4.83305 2.25777,7.69054 2.25777,2.82222 6.10304,2.82222 3.175,0 4.86833,-1.76389 1.69332,-1.79916 2.29305,-5.53859 h 3.38665 q -1.16416,10.19525 -10.5833,10.19525 -2.64583,0 -4.76249,-0.88194 -2.08139,-0.91722 -3.35139,-2.29305 -1.23471,-1.37583 -2.08138,-3.21027 -0.81139,-1.86972 -1.12889,-3.56305 -0.28222,-1.69333 -0.28222,-3.42194 z"
               style="font-weight:normal;font-family:FreeSans;-inkscape-font-specification:FreeSans;stroke-width:4.6"
               id="path5704" />
            <path
               d="m 315.08964,315.82448 h -9.91303 l -2.71638,7.72581 h -3.49249 l 9.1722,-25.71744 h 4.23332 l 9.03109,25.71744 h -3.66888 z m -0.91722,-2.75166 -3.9511,-11.7122 -4.23332,11.7122 z"
               style="font-weight:normal;font-family:FreeSans;-inkscape-font-specification:FreeSans;stroke-width:4.6"
               id="path5706" />
            <path
               d="m 335.58603,321.46891 q 1.97555,0 3.35138,-0.45861 1.37583,-0.45861 2.01083,-1.19944 0.67028,-0.74083 0.91722,-1.44639 0.28222,-0.74083 0.28222,-1.55222 0,-2.92805 -4.72721,-4.16277 l -6.38526,-1.69333 q -5.04471,-1.30527 -5.04471,-5.9972 0,-3.4925 2.43416,-5.50333 2.46944,-2.0461 6.70276,-2.0461 4.44499,0 6.91443,2.11666 2.46944,2.08138 2.50472,5.8561 h -3.10444 q -0.0353,-2.50472 -1.69333,-3.84527 -1.65805,-1.37583 -4.72721,-1.37583 -2.61055,0 -4.19805,1.19944 -1.55222,1.19944 -1.55222,3.13972 0,1.48166 0.9525,2.32832 0.9525,0.84667 3.28083,1.48167 l 6.45581,1.7286 q 2.61055,0.70556 4.02166,2.39889 1.44639,1.69333 1.44639,4.05693 0,1.02306 -0.28222,2.04611 -0.24695,0.98778 -0.9525,2.08138 -0.70556,1.05833 -1.79916,1.86972 -1.09361,0.81139 -2.92805,1.34055 -1.79917,0.52917 -4.09222,0.52917 -1.44638,0 -2.78693,-0.24694 -1.30528,-0.21167 -2.68111,-0.81139 -1.37583,-0.635 -2.36361,-1.5875 -0.98777,-0.98777 -1.65805,-2.61055 -0.635,-1.62277 -0.67027,-3.73943 h 3.10443 v 0.17639 q 0,1.0936 0.3175,2.0461 0.35278,0.9525 1.09361,1.86972 0.77611,0.91722 2.25777,1.48166 1.51695,0.52917 3.59833,0.52917 z"
               style="font-weight:normal;font-family:FreeSans;-inkscape-font-specification:FreeSans;stroke-width:4.6"
               id="path5708" />
            <path
               d="m 352.23711,319.88141 h 3.70415 v 4.23333 q 0,4.62137 -3.70415,4.62137 v -1.34055 q 1.02305,-0.0705 1.44638,-0.74083 0.42333,-0.67028 0.42333,-2.46944 v -0.635 h -1.86971 z"
               style="font-weight:normal;font-family:FreeSans;-inkscape-font-specification:FreeSans;stroke-width:4.6"
               id="path5710" />
            <path
               d="m 378.87177,297.83285 v 25.71744 h -3.3161 v -25.71744 z"
               style="font-weight:normal;font-family:FreeSans;-inkscape-font-specification:FreeSans;stroke-width:4.6"
               id="path5712" />
            <path
               d="m 390.61929,297.83285 v 25.71744 h -3.31611 v -25.71744 z"
               style="font-weight:normal;font-family:FreeSans;-inkscape-font-specification:FreeSans;stroke-width:4.6"
               id="path5714" />
            <path
               d="m 408.32872,300.72562 v 22.82467 h -3.28082 v -22.82467 h -8.46665 v -2.89277 h 20.17884 v 2.89277 z"
               style="font-weight:normal;font-family:FreeSans;-inkscape-font-specification:FreeSans;stroke-width:4.6"
               id="path5716" />
            <path
               d="m 433.6934,323.55029 v -25.71744 h 9.91303 q 4.9036,0 7.69054,3.42194 2.78694,3.42193 2.78694,9.41914 0,5.99721 -2.82221,9.45443 -2.78694,3.42193 -7.65527,3.42193 z m 3.28083,-2.89277 h 6.06776 q 3.80999,0 5.78554,-2.53999 1.97555,-2.54 1.97555,-7.40832 0,-4.9036 -1.97555,-7.44359 -1.97555,-2.54 -5.78554,-2.54 h -6.06776 z"
               style="font-weight:normal;font-family:FreeSans;-inkscape-font-specification:FreeSans;stroke-width:4.6"
               id="path5718" />
            <path
               d="m 475.35638,315.29531 h -13.61719 q 0.0705,2.89277 1.48166,4.62138 1.44638,1.72861 3.9511,1.72861 3.59833,0 4.83305,-3.70416 h 2.96332 q -0.56444,3.03388 -2.64583,4.72721 -2.08138,1.69333 -5.25637,1.69333 -3.88055,0 -6.13832,-2.61055 -2.25777,-2.64583 -2.25777,-7.19665 0,-4.55082 2.29305,-7.26721 2.32832,-2.75166 6.17359,-2.75166 8.21971,0 8.21971,10.7597 z m -13.54664,-2.39888 h 10.40692 q 0,-2.39889 -1.44638,-4.02166 -1.44639,-1.62277 -3.66888,-1.62277 -2.2225,0 -3.66889,1.55221 -1.44638,1.51695 -1.62277,4.09222 z"
               style="font-weight:normal;font-family:FreeSans;-inkscape-font-specification:FreeSans;stroke-width:4.6"
               id="path5720" />
            <path
               d="m 483.43503,297.83285 v 25.71744 h -2.96333 v -25.71744 z"
               style="font-weight:normal;font-family:FreeSans;-inkscape-font-specification:FreeSans;stroke-width:4.6"
               id="path5722" />
            <path
               d="m 501.6031,310.74449 q 0,-1.94028 -1.19944,-2.78694 -1.16416,-0.84666 -2.61055,-0.84666 -2.25777,0 -3.6336,1.7286 -1.37583,1.69333 -1.37583,4.51555 v 10.19525 h -2.92805 v -25.71744 h 2.92805 v 9.77192 q 1.30527,-1.69333 2.61055,-2.3636 1.34055,-0.70556 3.3161,-0.70556 2.68111,0 4.23333,1.37583 1.58749,1.34056 1.58749,3.66888 v 13.96997 h -2.92805 z"
               style="font-weight:normal;font-family:FreeSans;-inkscape-font-specification:FreeSans;stroke-width:4.6"
               id="path5724" />
            <path
               d="m 513.77391,305.06478 v 18.48551 h -2.92805 v -18.48551 z m 0,-7.23193 v 3.70416 h -2.96333 v -3.70416 z"
               style="font-weight:normal;font-family:FreeSans;-inkscape-font-specification:FreeSans;stroke-width:4.6"
               id="path5726" />
          </g>
          <g
             id="g4216"
             transform="matrix(1.4269224,0,0,1.4269224,47.572839,-71.948252)">
            <g
               id="g4237">
              <path
                 id="path3326"
                 style="fill:#ff0000;stroke:#ffffff;stroke-width:15.1802;paint-order:markers stroke fill"
                 d="m 228.78115,166.38263 a 48.793308,47.838707 0 0 1 -48.79331,47.83871 48.793308,47.838707 0 0 1 -48.79331,-47.83871 48.793308,47.838707 0 0 1 48.79331,-47.83871 48.793308,47.838707 0 0 1 48.79331,47.83871 z" />
              <path
                 id="ellipse6778-8"
                 style="display:inline;fill:#ffffff;stroke:#ffffff;stroke-width:1.944;stroke-linejoin:round"
                 d="m 266.99244,152.1269 a 90.089225,90.144001 0 0 1 -90.08923,90.144 90.089225,90.144001 0 0 1 -90.089219,-90.144 90.089225,90.144001 0 0 1 90.089219,-90.144002 90.089225,90.144001 0 0 1 90.08923,90.144002 z" />
              <path
                 id="path6766-0"
                 style="display:inline;fill:#001c38;fill-opacity:1;stroke-width:0.725116;stroke-linejoin:round"
                 d="m 155.15585,151.61046 c 37.10128,11.52712 75.604,37.56367 100.33005,-14.98187 -3.855,44.34153 -29.69377,67.27689 -76.25765,47.59688 -46.56384,-19.68001 -78.49076,0.47315 -37.04076,39.22461 -26.69812,-16.08131 -39.99052,-43.94756 -33.81876,-58.36717 4.98552,-11.64819 24.8648,-20.28357 46.78712,-13.47245 z" />
              <path
                 id="path6768-6"
                 style="display:inline;fill:#008080;fill-opacity:1;stroke-width:0.785016;stroke-linejoin:round"
                 d="m 236.37124,134.51192 c -21.00061,47.63339 -75.45758,-60.931201 -119.61754,5.17227 -3.33202,5.87888 -5.69824,11.20977 -6.30204,14.60504 12.144,-17.46841 29.26463,-14.80989 43.74467,-11.42342 0.32,0.0931 0.63832,0.1794 0.95912,0.27904 1.14308,0.35516 2.31392,0.73636 3.49952,1.13068 0.1156,0.0384 0.2252,0.0708 0.3412,0.10956 0.008,0.002 0.012,0.004 0.02,0.006 1.2994,0.43459 2.62248,0.8902 3.9646,1.36012 0.008,0.002 0.012,0.004 0.02,0.006 2.69104,0.9424 5.46,1.94529 8.27652,2.96416 0.004,0.002 0.012,0.004 0.02,0.006 1.40544,0.50841 2.8226,1.02056 4.2478,1.53169 0.174,0.0625 0.3508,0.1236 0.525,0.18604 2.6922,0.96346 5.40764,1.92118 8.12768,2.83394 0.004,0.001 0.008,0.003 0.012,0.004 0.003,9e-4 0.004,0.001 0.008,0.002 1.44192,0.48375 2.8856,0.95592 4.32428,1.40974 0.004,0.002 0.012,0.004 0.016,0.006 0.71684,0.22604 1.43308,0.44694 2.14768,0.66352 0.004,0.002 0.012,0.004 0.016,0.006 1.46432,0.44605 2.91103,0.85405 4.28296,1.2361 0.008,0.002 0.012,0.004 0.02,0.006 27.99752,7.24845 39.22072,1.40487 41.34655,-22.10254 z" />
              <path
                 id="path6772-6"
                 style="display:inline;fill:#005f35;fill-opacity:1;stroke-width:5.36148;stroke-linejoin:round"
                 d="m 256.24594,157.63615 c -3.7216,13.99887 -11.69873,29.47123 -24.85701,35.6568 -14.69948,7.07074 -30.9178,7.63431 -45.12132,2.49856 -12.44868,-4.54132 -36.45032,-15.17099 -49.22088,-8.80291 -5.07292,2.52965 -6.53557,9.77433 -5.32632,14.91226 2.78642,11.83907 11.10075,19.27863 26.31043,25.28064 16.5704,6.53897 43.56009,3.65675 60.04921,-6.31334 22.17864,-13.41027 37.58505,-38.39007 38.52705,-64.59051 l -0.3612,1.3585 z" />
              <path
                 id="path5601-5"
                 style="display:inline;fill:none;stroke:#000000;stroke-width:4.6;stroke-linejoin:round;stroke-dasharray:none;stroke-opacity:1"
                 d="m 139.68053,81.143293 c 23.65664,-4.879684 46.6294,0.95484 59.07056,7.395585" />
              <path
                 id="path5665-9"
                 style="display:inline;fill:none;fill-opacity:1;stroke:#000000;stroke-width:4.6;stroke-linejoin:round;stroke-dasharray:none;stroke-opacity:1;marker-start:url(#CapTriangle)"
                 d="m 107.72665,192.46994 c -3.96652,-6.80853 -6.90792,-14.16489 -8.729242,-21.83161 -10.230321,-43.06343 16.364962,-86.261524 59.402242,-96.485637 13.72752,-3.261168 27.8072,-2.787888 40.91268,1.033144 13.10552,3.821032 25.23684,10.989813 35.06768,21.119649 M 100.25529,175.38497 c -2.285442,-7.54097 -3.446923,-15.37798 -3.446923,-23.25807 0,-22.13097 8.964883,-42.1668 23.459163,-56.669894 14.49428,-14.503089 34.51796,-23.473441 56.63548,-23.473445 28.21916,-4e-6 54.35616,14.858869 68.8028,39.114389" />
              <path
                 id="path5668-2"
                 style="display:inline;fill:none;stroke:#000000;stroke-width:4.6;stroke-linejoin:round;stroke-dasharray:none;stroke-opacity:1"
                 d="m 97.193328,159.97548 c 5.132402,-23.31431 16.802002,-45.19069 46.577922,-55.34867" />
              <path
                 id="path6662-2"
                 style="display:inline;fill:#df357d;fill-opacity:1;stroke-width:3.51834;stroke-linecap:square;stroke-linejoin:bevel;stroke-miterlimit:3.3"
                 d="m 252.65802,111.92365 a 7.0770196,6.9999635 89.999959 0 1 -7.76884,6.20296 7.0770196,6.9999635 89.999959 0 1 -6.13557,-7.85434 7.0770196,6.9999635 89.999959 0 1 7.76893,-6.20297 7.0770196,6.9999635 89.999959 0 1 6.13548,7.85435 z" />
              <path
                 id="path6716-8"
                 style="display:inline;fill:#df357d;fill-opacity:1;stroke-width:3.48006;stroke-linecap:square;stroke-linejoin:bevel;stroke-miterlimit:3.3"
                 d="m 206.68506,91.398114 a 7.0000296,6.9238119 89.999959 0 1 -7.68431,6.13548 7.0000296,6.9238119 89.999959 0 1 -6.06882,-7.768888 7.0000296,6.9238119 89.999959 0 1 7.68441,-6.135493 7.0000296,6.9238119 89.999959 0 1 6.06872,7.768901 z" />
              <path
                 id="path6732-9"
                 style="display:inline;fill:#df357d;fill-opacity:1;stroke-width:3.48006;stroke-linecap:square;stroke-linejoin:bevel;stroke-miterlimit:3.3"
                 d="m 150.64782,105.44352 a 7.0000296,6.9238119 89.999959 0 1 -7.68432,6.13548 7.0000296,6.9238119 89.999959 0 1 -6.06882,-7.76889 7.0000296,6.9238119 89.999959 0 1 7.68441,-6.135488 7.0000296,6.9238119 89.999959 0 1 6.06873,7.768898 z" />
              <path
                 id="path6740-7"
                 style="display:inline;fill:#df357d;fill-opacity:1;stroke-width:3.45152;stroke-linecap:square;stroke-linejoin:bevel;stroke-miterlimit:3.3"
                 d="m 104.37652,154.28667 a 7.0000144,6.8108367 89.999984 0 1 -7.558961,6.13548 7.0000144,6.8108367 89.999984 0 1 -5.969776,-7.76887 7.0000144,6.8108367 89.999984 0 1 7.559017,-6.13551 7.0000144,6.8108367 89.999984 0 1 5.96972,7.7689 z" />
              <path
                 id="path6756-3"
                 style="display:inline;fill:#df357d;fill-opacity:1;stroke-width:3.48006;stroke-linecap:square;stroke-linejoin:bevel;stroke-miterlimit:3.3"
                 d="m 153.01629,79.852209 a 7.0000268,6.9238087 89.999959 0 1 -7.68431,6.135477 7.0000268,6.9238087 89.999959 0 1 -6.06881,-7.768881 7.0000268,6.9238087 89.999959 0 1 7.6844,-6.135503 7.0000268,6.9238087 89.999959 0 1 6.06872,7.768907 z" />
            </g>
          </g>
          <g
             id="g5635"
             transform="translate(-93.600275,55.543072)">
            <path
               id="path5367"
               style="font-weight:600;font-size:85.9172px;font-family:FreeSans;-inkscape-font-specification:'FreeSans Semi-Bold';display:inline;opacity:1;fill:#001c38;fill-opacity:1;stroke-width:11.2031;paint-order:markers stroke fill"
               d="m 373.28057,218.21045 v 62.63391 h 12.88759 v -43.86089 l 5.28547,15.19545 v 5.2e-4 l 2.43964,7.01352 h 6.7169 6.17069 6.7169 l 2.43964,-7.01404 5.45703,-15.68948 v 44.35492 h 12.88759 v -62.63391 h -6.52983 -12.88759 l -11.16934,28.09493 -11.16935,-28.09493 h -6.35775 -6.52983 z" />
            <path
               id="circle5237"
               style="fill:#df357d;stroke-width:4.99705;paint-order:markers stroke fill"
               d="m 363.52695,224.65442 a 7,7 0 0 1 -7,7 7,7 0 0 1 -7,-7 7,7 0 0 1 7,-7 7,7 0 0 1 7,7 z" />
            <path
               d="m 280.49031,239.43218 q -2.40568,-11.25515 -13.40309,-11.25515 -7.64663,0 -11.94249,5.84237 -4.29586,5.84237 -4.29586,16.23835 0,10.22414 4.12403,15.9806 4.20994,5.75645 11.68474,5.75645 6.0142,0 9.62272,-3.26486 3.60853,-3.26485 4.20995,-9.27905 h 12.54391 q -0.60142,10.73965 -7.81847,17.09752 -7.21704,6.27195 -18.90178,6.27195 -13.05942,0 -20.70605,-8.76355 -7.64663,-8.84947 -7.64663,-23.9709 0,-15.20734 7.73255,-24.05681 7.73255,-8.84948 20.9638,-8.84948 11.08332,0 18.12853,5.92829 7.13112,5.92829 7.9903,16.32427 z"
               style="font-weight:600;font-size:85.9172px;font-family:FreeSans;-inkscape-font-specification:'FreeSans Semi-Bold';fill:#001c38;stroke-width:11.2031;paint-order:markers stroke fill"
               id="path4979" />
            <path
               d="m 312.36565,218.21063 v 51.89399 h 29.9851 v 10.73965 h -42.87268 v -62.63364 z"
               style="font-weight:600;font-size:85.9172px;font-family:FreeSans;-inkscape-font-specification:'FreeSans Semi-Bold';fill:#001c38;stroke-width:11.2031;paint-order:markers stroke fill"
               id="path4981" />
            <path
               d="m 448.02873,280.84427 v -62.63364 h 24.48641 q 7.21705,0 11.85657,1.71835 4.72544,1.71834 7.90438,5.4987 7.64663,9.10722 7.64663,24.05681 0,15.12143 -7.64663,24.05682 -6.10012,7.30296 -19.76095,7.30296 z m 12.88758,-10.73965 h 11.59884 q 14.51999,0 14.51999,-20.53421 0,-20.62013 -14.51999,-20.62013 h -11.59884 z"
               style="font-weight:600;font-size:85.9172px;font-family:FreeSans;-inkscape-font-specification:'FreeSans Semi-Bold';fill:#001c38;stroke-width:11.2031;paint-order:markers stroke fill"
               id="path4987" />
            <path
               d="m 519.25417,218.21063 v 51.89399 h 29.98509 v 10.73965 h -42.87267 v -62.63364 z"
               style="font-weight:600;font-size:85.9172px;font-family:FreeSans;-inkscape-font-specification:'FreeSans Semi-Bold';fill:#001c38;stroke-width:11.2031;paint-order:markers stroke fill"
               id="path4989" />
            <path
               d="m 362.97077,237.542 v 43.30227 H 350.08319 V 237.542 Z"
               style="font-weight:600;font-size:85.9172px;font-family:FreeSans;-inkscape-font-specification:'FreeSans Semi-Bold';fill:#001c38;stroke-width:9.31515;paint-order:markers stroke fill"
               id="path4833" />
            <path
               d="m 362.97077,237.542 v 43.30227 H 350.08319 V 237.542 Z"
               style="font-weight:600;font-size:85.9172px;font-family:FreeSans;-inkscape-font-specification:'FreeSans Semi-Bold';fill:#001c38;stroke-width:9.31515;paint-order:markers stroke fill"
               id="path5351" />
          </g>
        </g>
      </g>
    </g>
  </g>
</svg>
