<?xml version="1.0" encoding="UTF-8" standalone="no"?>
<!-- Created with Inkscape (http://www.inkscape.org/) -->

<svg
   width="266.75446mm"
   height="268.5914mm"
   viewBox="0 0 266.75446 268.5914"
   version="1.1"
   id="svg347"
   inkscape:version="1.2.2 (b0a8486541, 2022-12-01)"
   sodipodi:docname="drawing.svg"
   inkscape:export-filename="../../../iitd/climdl/icon.svg"
   inkscape:export-xdpi="96"
   inkscape:export-ydpi="96"
   xmlns:inkscape="http://www.inkscape.org/namespaces/inkscape"
   xmlns:sodipodi="http://sodipodi.sourceforge.net/DTD/sodipodi-0.dtd"
   xmlns="http://www.w3.org/2000/svg"
   xmlns:svg="http://www.w3.org/2000/svg">
  <sodipodi:namedview
     id="namedview349"
     pagecolor="#ffffff"
     bordercolor="#999999"
     borderopacity="1"
     inkscape:showpageshadow="2"
     inkscape:pageopacity="0"
     inkscape:pagecheckerboard="false"
     inkscape:deskcolor="#d1d1d1"
     inkscape:document-units="mm"
     showgrid="false"
     inkscape:zoom="0.31496534"
     inkscape:cx="774.68843"
     inkscape:cy="549.26679"
     inkscape:window-width="1920"
     inkscape:window-height="1011"
     inkscape:window-x="0"
     inkscape:window-y="0"
     inkscape:window-maximized="1"
     inkscape:current-layer="layer1" />
  <defs
     id="defs344">
    <marker
       markerWidth="0.52499998"
       markerHeight="0.99999994"
       refX="0"
       refY="0"
       orient="auto-start-reverse"
       id="CapTriangle"
       viewBox="0 0 0.525 1"
       inkscape:stockid="pin"
       style="overflow:visible"
       preserveAspectRatio="xMidYMid"
       inkscape:isstock="true"
       inkscape:collect="always">
      <path
         id="path7813"
         style="fill:context-stroke;stroke-linecap:butt"
         d="M 0,-1 1,0 0,1 -0.05,0 Z"
         sodipodi:nodetypes="sssssscsss"
         transform="scale(0.5)" />
    </marker>
  </defs>
  <g
     inkscape:label="Layer 1"
     inkscape:groupmode="layer"
     id="layer1"
     transform="translate(-14.264706,-118.87689)">
    <g
       id="g2044"
       transform="translate(4.6853165,1.3186181e-5)">
      <path
         id="path5601-5"
         style="display:inline;fill:none;stroke:#000000;stroke-width:6.73717;stroke-linejoin:round;stroke-dasharray:none;stroke-opacity:1"
         d="m 89.143067,146.03719 c 34.647593,-7.1468 68.293563,1.39846 86.514923,10.8316"
         sodipodi:nodetypes="cc" />
      <path
         id="path5668-2"
         style="display:inline;fill:none;stroke:#000000;stroke-width:6.73717;stroke-linejoin:round;stroke-dasharray:none;stroke-opacity:1"
         d="m 26.916179,261.49506 c 7.516932,-34.14621 24.608265,-66.18643 68.218169,-81.06384"
         sodipodi:nodetypes="cc" />
      <path
         id="path6766-0"
         style="display:inline;fill:#001c38;fill-opacity:1;stroke-width:1.06201;stroke-linejoin:round"
         d="m 105.27504,249.99999 c 54.33865,16.88266 116.14336,56.79251 152.35721,-20.16585 -5.64604,64.94274 -42.48074,102.70199 -110.67834,73.87859 C 78.756371,274.88932 31.996105,299.86059 92.703904,356.6161 53.601754,333.06337 34.133664,292.25037 43.172843,271.13136 50.474651,254.07139 73.167545,240.0244 105.27504,249.99999 Z"
         sodipodi:nodetypes="sczcss" />
      <path
         id="path6768-6"
         style="display:inline;fill:#008080;fill-opacity:1;stroke-width:1.14974;stroke-linejoin:round"
         d="m 229.69824,228.63021 c -30.75756,69.76401 -110.5154,-89.24003 -175.192213,7.57532 -4.880087,8.61023 -8.34566,16.41786 -9.229987,21.39059 17.78614,-25.58429 42.861067,-21.69061 64.06857,-16.73078 0.46868,0.13635 0.93489,0.26275 1.40473,0.40868 1.67416,0.52017 3.38898,1.07848 5.12541,1.656 0.16931,0.0562 0.32983,0.10369 0.49972,0.16046 0.0117,0.003 0.0176,0.006 0.0293,0.009 1.9031,0.6365 3.84089,1.30379 5.80656,1.99204 0.0117,0.003 0.0176,0.006 0.0293,0.009 3.94131,1.38025 7.99674,2.84908 12.12182,4.34132 0.006,0.003 0.0176,0.006 0.0293,0.009 2.05841,0.74462 4.13399,1.49471 6.22134,2.24332 0.25484,0.0915 0.51379,0.18102 0.76892,0.27247 3.943,1.41109 7.92005,2.81377 11.90382,4.1506 0.006,10e-4 0.0117,0.004 0.0176,0.006 0.004,0.001 0.006,0.001 0.0117,0.003 2.11184,0.7085 4.22626,1.40004 6.33335,2.06471 0.006,0.003 0.0176,0.006 0.0234,0.009 1.04989,0.33106 2.0989,0.65459 3.1455,0.9718 0.006,0.003 0.0176,0.006 0.0234,0.009 2.14464,0.65328 4.2635,1.25084 6.27283,1.81039 0.0117,0.003 0.0176,0.006 0.0293,0.009 41.00525,10.6161 57.44278,2.05758 60.55628,-32.37145 z"
         sodipodi:nodetypes="ccccssscscssscsscscscccc" />
      <path
         id="path6772-6"
         style="display:inline;fill:#005f35;fill-opacity:1;stroke-width:7.85244;stroke-linejoin:round"
         d="m 257.1033,262.3364 c -5.45067,20.50278 -17.134,43.16365 -36.40566,52.22306 -21.5289,10.35582 -45.2823,11.18123 -66.08482,3.65939 -18.23238,-6.65123 -53.38525,-22.21947 -72.089056,-12.89276 -7.429815,3.70493 -9.572016,14.31551 -7.800945,21.84054 4.080999,17.33954 16.258193,28.23554 38.534341,37.0261 24.26906,9.577 67.4738,3.794 91.62382,-10.80823 32.4829,-19.64072 51.37162,-54.66452 52.75127,-93.03777 l -0.52901,1.98967 z"
         sodipodi:nodetypes="sccsacscss" />
      <path
         id="path5665-9"
         style="display:inline;fill:none;fill-opacity:1;stroke:#000000;stroke-width:6.73717;stroke-linejoin:round;stroke-dasharray:none;stroke-opacity:1;marker-start:url(#CapTriangle)"
         inkscape:transform-center-x="-0.50941426"
         inkscape:transform-center-y="-1.759414"
         d="M 42.343316,311.92819 C 36.533938,301.9564 32.225954,291.18225 29.558441,279.95355 14.575081,216.88272 53.526615,153.61465 116.55915,138.64039 c 20.10537,-4.77632 40.72651,-4.08315 59.92084,1.51314 19.19438,5.5963 36.96195,16.09572 51.36023,30.93191 M 31.400739,286.90549 c -3.347266,-11.04453 -5.048375,-22.52263 -5.048375,-34.06384 0,-32.41309 13.129996,-61.75762 34.358363,-82.9989 21.228368,-21.24127 50.555113,-34.37928 82.948503,-34.37928 41.32987,-1e-5 79.6102,21.76234 100.76879,57.28705"
         sodipodi:nodetypes="csssccsssc" />
      <path
         id="path6662-2"
         style="display:inline;fill:#df357d;fill-opacity:1;stroke-width:5.15297;stroke-linecap:square;stroke-linejoin:bevel;stroke-miterlimit:3.3"
         d="m 254.61025,193.95985 a 10.365025,10.252168 89.999959 0 1 -11.37827,9.08487 10.365025,10.252168 89.999959 0 1 -8.98617,-11.50349 10.365025,10.252168 89.999959 0 1 11.3784,-9.08489 10.365025,10.252168 89.999959 0 1 8.98604,11.50351 z"
         inkscape:transform-center-y="0.8115289"
         inkscape:transform-center-x="1.1340174e-06" />
      <path
         id="path6716-8"
         style="display:inline;fill:#df357d;fill-opacity:1;stroke-width:5.09691;stroke-linecap:square;stroke-linejoin:bevel;stroke-miterlimit:3.3"
         d="m 187.27811,163.89808 a 10.252265,10.140636 89.999959 0 1 -11.25446,8.98605 10.252265,10.140636 89.999959 0 1 -8.88842,-11.37834 10.252265,10.140636 89.999959 0 1 11.25461,-8.98606 10.252265,10.140636 89.999959 0 1 8.88827,11.37835 z"
         inkscape:transform-center-y="0.80270208"
         inkscape:transform-center-x="1.1620773e-06" />
      <path
         id="path6732-9"
         style="display:inline;fill:#df357d;fill-opacity:1;stroke-width:5.09691;stroke-linecap:square;stroke-linejoin:bevel;stroke-miterlimit:3.3"
         d="m 105.20579,184.46903 a 10.252265,10.140636 89.999959 0 1 -11.254475,8.98604 10.252265,10.140636 89.999959 0 1 -8.888412,-11.37834 10.252265,10.140636 89.999959 0 1 11.25461,-8.98605 10.252265,10.140636 89.999959 0 1 8.888277,11.37835 z"
         inkscape:transform-center-y="0.80270208"
         inkscape:transform-center-x="1.1620773e-06" />
      <path
         id="path6740-7"
         style="display:inline;fill:#df357d;fill-opacity:1;stroke-width:5.05511;stroke-linecap:square;stroke-linejoin:bevel;stroke-miterlimit:3.3"
         d="m 37.436705,256.00486 a 10.252243,9.9751725 89.999984 0 1 -11.070878,8.98604 10.252243,9.9751725 89.999984 0 1 -8.743352,-11.37831 10.252243,9.9751725 89.999984 0 1 11.070959,-8.98609 10.252243,9.9751725 89.999984 0 1 8.743271,11.37836 z"
         inkscape:transform-center-y="0.80268244"
         inkscape:transform-center-x="-1.532571e-06" />
      <path
         id="path6756-3"
         style="display:inline;fill:#df357d;fill-opacity:1;stroke-width:5.09691;stroke-linecap:square;stroke-linejoin:bevel;stroke-miterlimit:3.3"
         d="m 108.67466,146.98791 a 10.252261,10.140632 89.999959 0 1 -11.254462,8.98604 10.252261,10.140632 89.999959 0 1 -8.888398,-11.37832 10.252261,10.140632 89.999959 0 1 11.254597,-8.98608 10.252261,10.140632 89.999959 0 1 8.888263,11.37836 z"
         inkscape:transform-center-y="0.80269857"
         inkscape:transform-center-x="1.9736566e-06" />
    </g>
  </g>
</svg>
