<?xml version="1.0" encoding="UTF-8" standalone="no"?>
<!-- Created with Inkscape (http://www.inkscape.org/) -->

<svg
   width="600mm"
   height="500mm"
   viewBox="0 0 600 500"
   version="1.1"
   id="svg347"
   xmlns="http://www.w3.org/2000/svg"
   xmlns:svg="http://www.w3.org/2000/svg">
  <defs
     id="defs344">
    <marker
       markerWidth="0.52499998"
       markerHeight="0.99999994"
       refX="0"
       refY="0"
       orient="auto-start-reverse"
       id="CapTriangle"
       viewBox="0 0 0.525 1"
       style="overflow:visible"
       preserveAspectRatio="xMidYMid">
      <path
         id="path7813"
         style="fill:context-stroke;stroke-linecap:butt"
         d="M 0,-1 1,0 0,1 -0.05,0 Z"
         transform="scale(0.5)" />
    </marker>
  </defs>
  <g
     id="layer1">
    <g
       id="g4216"
       transform="matrix(1.4646031,0,0,1.4646031,40.906999,-53.167341)">
      <g
         id="g4237">
        <ellipse
           style="fill:#ff0000;fill-opacity:1;stroke:#ffffff;stroke-width:15.1802;stroke-dasharray:none;paint-order:markers stroke fill"
           id="path3326"
           cx="179.98784"
           cy="166.38263"
           rx="48.793308"
           ry="47.838707" />
        <path
           id="ellipse6778-8"
           style="display:inline;fill:#ffffff;stroke:#ffffff;stroke-width:1.944;stroke-linejoin:round"
           d="m 266.99244,152.1269 a 90.089225,90.144001 0 0 1 -90.08923,90.144 90.089225,90.144001 0 0 1 -90.089219,-90.144 90.089225,90.144001 0 0 1 90.089219,-90.144002 90.089225,90.144001 0 0 1 90.08923,90.144002 z" />
        <path
           id="path6766-0"
           style="display:inline;fill:#001c38;fill-opacity:1;stroke-width:0.725116;stroke-linejoin:round"
           d="m 155.15585,151.61046 c 37.10128,11.52712 75.604,37.56367 100.33005,-14.98187 -3.855,44.34153 -29.69377,67.27689 -76.25765,47.59688 -46.56384,-19.68001 -78.49076,0.47315 -37.04076,39.22461 -26.69812,-16.08131 -39.99052,-43.94756 -33.81876,-58.36717 4.98552,-11.64819 24.8648,-20.28357 46.78712,-13.47245 z" />
        <path
           id="path6768-6"
           style="display:inline;fill:#008080;fill-opacity:1;stroke-width:0.785016;stroke-linejoin:round"
           d="m 236.37124,134.51192 c -21.00061,47.63339 -75.45758,-60.931201 -119.61754,5.17227 -3.33202,5.87888 -5.69824,11.20977 -6.30204,14.60504 12.144,-17.46841 29.26463,-14.80989 43.74467,-11.42342 0.32,0.0931 0.63832,0.1794 0.95912,0.27904 1.14308,0.35516 2.31392,0.73636 3.49952,1.13068 0.1156,0.0384 0.2252,0.0708 0.3412,0.10956 0.008,0.002 0.012,0.004 0.02,0.006 1.2994,0.43459 2.62248,0.8902 3.9646,1.36012 0.008,0.002 0.012,0.004 0.02,0.006 2.69104,0.9424 5.46,1.94529 8.27652,2.96416 0.004,0.002 0.012,0.004 0.02,0.006 1.40544,0.50841 2.8226,1.02056 4.2478,1.53169 0.174,0.0625 0.3508,0.1236 0.525,0.18604 2.6922,0.96346 5.40764,1.92118 8.12768,2.83394 0.004,0.001 0.008,0.003 0.012,0.004 0.003,9e-4 0.004,0.001 0.008,0.002 1.44192,0.48375 2.8856,0.95592 4.32428,1.40974 0.004,0.002 0.012,0.004 0.016,0.006 0.71684,0.22604 1.43308,0.44694 2.14768,0.66352 0.004,0.002 0.012,0.004 0.016,0.006 1.46432,0.44605 2.91103,0.85405 4.28296,1.2361 0.008,0.002 0.012,0.004 0.02,0.006 27.99752,7.24845 39.22072,1.40487 41.34655,-22.10254 z" />
        <path
           id="path6772-6"
           style="display:inline;fill:#005f35;fill-opacity:1;stroke-width:5.36148;stroke-linejoin:round"
           d="m 256.24594,157.63615 c -3.7216,13.99887 -11.69873,29.47123 -24.85701,35.6568 -14.69948,7.07074 -30.9178,7.63431 -45.12132,2.49856 -12.44868,-4.54132 -36.45032,-15.17099 -49.22088,-8.80291 -5.07292,2.52965 -6.53557,9.77433 -5.32632,14.91226 2.78642,11.83907 11.10075,19.27863 26.31043,25.28064 16.5704,6.53897 43.56009,3.65675 60.04921,-6.31334 22.17864,-13.41027 37.58505,-38.39007 38.52705,-64.59051 l -0.3612,1.3585 z" />
        <path
           id="path5601-5"
           style="display:inline;fill:none;stroke:#000000;stroke-width:4.6;stroke-linejoin:round;stroke-dasharray:none;stroke-opacity:1"
           d="m 139.68053,81.143293 c 23.65664,-4.879684 46.6294,0.95484 59.07056,7.395585" />
        <path
           id="path5665-9"
           style="display:inline;fill:none;fill-opacity:1;stroke:#000000;stroke-width:4.6;stroke-linejoin:round;stroke-dasharray:none;stroke-opacity:1;marker-start:url(#CapTriangle)"
           d="m 107.72665,192.46994 c -3.96652,-6.80853 -6.90792,-14.16489 -8.729242,-21.83161 -10.230321,-43.06343 16.364962,-86.261524 59.402242,-96.485637 13.72752,-3.261168 27.8072,-2.787888 40.91268,1.033144 13.10552,3.821032 25.23684,10.989813 35.06768,21.119649 M 100.25529,175.38497 c -2.285442,-7.54097 -3.446923,-15.37798 -3.446923,-23.25807 0,-22.13097 8.964883,-42.1668 23.459163,-56.669894 14.49428,-14.503089 34.51796,-23.473441 56.63548,-23.473445 28.21916,-4e-6 54.35616,14.858869 68.8028,39.114389" />
        <path
           id="path5668-2"
           style="display:inline;fill:none;stroke:#000000;stroke-width:4.6;stroke-linejoin:round;stroke-dasharray:none;stroke-opacity:1"
           d="m 97.193328,159.97548 c 5.132402,-23.31431 16.802002,-45.19069 46.577922,-55.34867" />
        <path
           id="path6662-2"
           style="display:inline;fill:#df357d;fill-opacity:1;stroke-width:3.51834;stroke-linecap:square;stroke-linejoin:bevel;stroke-miterlimit:3.3"
           d="m 252.65802,111.92365 a 7.0770196,6.9999635 89.999959 0 1 -7.76884,6.20296 7.0770196,6.9999635 89.999959 0 1 -6.13557,-7.85434 7.0770196,6.9999635 89.999959 0 1 7.76893,-6.20297 7.0770196,6.9999635 89.999959 0 1 6.13548,7.85435 z" />
        <path
           id="path6662-2-6"
           style="display:inline;fill:#df357d;fill-opacity:1;stroke-width:3.51834;stroke-linecap:square;stroke-linejoin:bevel;stroke-miterlimit:3.3"
           d="m 140.36481,260.25705 a 7.0770196,6.9999635 89.999959 0 1 -7.76884,6.20296 7.0770196,6.9999635 89.999959 0 1 -6.13557,-7.85434 7.0770196,6.9999635 89.999959 0 1 7.76893,-6.20297 7.0770196,6.9999635 89.999959 0 1 6.13548,7.85435 z" />
        <path
           id="path6716-8"
           style="display:inline;fill:#df357d;fill-opacity:1;stroke-width:3.48006;stroke-linecap:square;stroke-linejoin:bevel;stroke-miterlimit:3.3"
           d="m 206.68506,91.398114 a 7.0000296,6.9238119 89.999959 0 1 -7.68431,6.13548 7.0000296,6.9238119 89.999959 0 1 -6.06882,-7.768888 7.0000296,6.9238119 89.999959 0 1 7.68441,-6.135493 7.0000296,6.9238119 89.999959 0 1 6.06872,7.768901 z" />
        <path
           id="path6732-9"
           style="display:inline;fill:#df357d;fill-opacity:1;stroke-width:3.48006;stroke-linecap:square;stroke-linejoin:bevel;stroke-miterlimit:3.3"
           d="m 150.64782,105.44352 a 7.0000296,6.9238119 89.999959 0 1 -7.68432,6.13548 7.0000296,6.9238119 89.999959 0 1 -6.06882,-7.76889 7.0000296,6.9238119 89.999959 0 1 7.68441,-6.135488 7.0000296,6.9238119 89.999959 0 1 6.06873,7.768898 z" />
        <path
           id="path6740-7"
           style="display:inline;fill:#df357d;fill-opacity:1;stroke-width:3.45152;stroke-linecap:square;stroke-linejoin:bevel;stroke-miterlimit:3.3"
           d="m 104.37652,154.28667 a 7.0000144,6.8108367 89.999984 0 1 -7.558961,6.13548 7.0000144,6.8108367 89.999984 0 1 -5.969776,-7.76887 7.0000144,6.8108367 89.999984 0 1 7.559017,-6.13551 7.0000144,6.8108367 89.999984 0 1 5.96972,7.7689 z" />
        <path
           id="path6756-3"
           style="display:inline;fill:#df357d;fill-opacity:1;stroke-width:3.48006;stroke-linecap:square;stroke-linejoin:bevel;stroke-miterlimit:3.3"
           d="m 153.01629,79.852209 a 7.0000268,6.9238087 89.999959 0 1 -7.68431,6.135477 7.0000268,6.9238087 89.999959 0 1 -6.06881,-7.768881 7.0000268,6.9238087 89.999959 0 1 7.6844,-6.135503 7.0000268,6.9238087 89.999959 0 1 6.06872,7.768907 z" />
      </g>
    </g>
    <text
       xml:space="preserve"
       style="font-style:normal;font-variant:normal;font-weight:bold;font-stretch:normal;font-size:42.6584px;font-family:'DejaVu Sans';-inkscape-font-specification:'DejaVu Sans Bold';letter-spacing:2.55951px;fill:#001c38;fill-opacity:1;stroke:none;stroke-width:5.5624;stroke-dasharray:none;paint-order:markers stroke fill"
       x="152.97769"
       y="447.47726"
       id="text3778"><tspan
         id="tspan3776"
         style="font-style:normal;font-variant:normal;font-weight:normal;font-stretch:normal;font-family:FreeSans;-inkscape-font-specification:FreeSans;fill:#001c38;fill-opacity:1;stroke-width:5.56241"
         x="152.97769"
         y="447.47726">CAS, IIT Delhi</tspan></text>
    <g
       id="g1576"
       transform="translate(-336.46717,-26.36116)">
      <path
         d="m 511.90265,371.23105 q -2.93339,-13.72409 -16.34318,-13.72409 -9.324,0 -14.5622,7.12395 -5.2382,7.12396 -5.2382,19.8004 0,12.46692 5.02867,19.4861 5.13344,7.01919 14.24791,7.01919 7.33348,0 11.73357,-3.98103 4.40008,-3.98103 5.13343,-11.31451 h 15.29555 q -0.73335,13.0955 -9.53353,20.84803 -8.80017,7.64778 -23.04808,7.64778 -15.92413,0 -25.24812,-10.68593 -9.324,-10.79069 -9.324,-29.22916 0,-18.54323 9.42876,-29.33392 9.42876,-10.79069 25.56242,-10.79069 13.51455,0 22.1052,7.22872 8.69541,7.22871 9.74305,19.90516 z"
         style="font-weight:600;font-size:104.764px;font-family:FreeSans;-inkscape-font-specification:'FreeSans Semi-Bold';opacity:0.977364;fill:#001c38;stroke-width:13.6605;paint-order:markers stroke fill"
         id="path1550" />
      <path
         d="m 552.86544,345.35434 v 76.37295 h -14.66696 v -76.37295 z"
         style="font-weight:600;font-size:104.764px;font-family:FreeSans;-inkscape-font-specification:'FreeSans Semi-Bold';opacity:0.977364;fill:#001c38;stroke-width:13.6605;paint-order:markers stroke fill"
         id="path1552" />
      <path
         d="m 594.2474,365.15473 h 14.5622 v 7.01919 q 3.66674,-4.29532 7.12395,-6.07631 3.56198,-1.88575 8.38112,-1.88575 11.10499,0 15.40031,8.38112 6.28584,-8.38112 16.55271,-8.38112 8.48589,0 13.20027,4.60961 4.81914,4.60962 4.81914,12.88598 v 40.01984 h -14.66696 v -37.71504 q 0,-3.35244 -2.20004,-5.34296 -2.09528,-1.99052 -5.76202,-1.99052 -4.71438,0 -7.43825,2.9334 -2.6191,2.93339 -2.6191,8.17159 v 33.94353 h -14.66696 v -37.71504 q 0,-3.35244 -2.20004,-5.34296 -2.09528,-1.99052 -5.76202,-1.99052 -4.71438,0 -7.43825,2.9334 -2.6191,2.93339 -2.6191,8.17159 v 33.94353 H 594.2474 Z"
         style="font-weight:600;font-size:104.764px;font-family:FreeSans;-inkscape-font-specification:'FreeSans Semi-Bold';opacity:0.977364;fill:#001c38;stroke-width:13.6605;paint-order:markers stroke fill"
         id="path1556" />
      <path
         d="m 689.47778,421.72729 v -76.37295 h 29.85774 q 8.80018,0 14.45744,2.09528 5.76202,2.09528 9.63828,6.70489 9.324,11.10499 9.324,29.33392 0,18.43847 -9.324,29.33392 -7.43824,8.90494 -24.09572,8.90494 z m 15.7146,-13.0955 h 14.14314 q 17.70512,0 17.70512,-25.03859 0,-25.14336 -17.70512,-25.14336 h -14.14314 z"
         style="font-weight:600;font-size:104.764px;font-family:FreeSans;-inkscape-font-specification:'FreeSans Semi-Bold';opacity:0.977364;fill:#001c38;stroke-width:13.6605;paint-order:markers stroke fill"
         id="path1558" />
      <path
         d="m 776.32723,345.35434 v 63.27745 h 36.56263 v 13.0955 h -52.27723 v -76.37295 z"
         style="font-weight:600;font-size:104.764px;font-family:FreeSans;-inkscape-font-specification:'FreeSans Semi-Bold';opacity:0.977364;fill:#001c38;stroke-width:13.6605;paint-order:markers stroke fill"
         id="path1560" />
      <path
         d="m 579.95411,373.45494 v 48.27235 h -14.36677 v -48.27235 z"
         style="font-weight:600;font-size:85.9172px;font-family:FreeSans;-inkscape-font-specification:'FreeSans Semi-Bold';fill:#001c38;stroke-width:10.3843;paint-order:markers stroke fill"
         id="path1546" />
      <circle
         style="fill:#df357d;fill-opacity:1;stroke:none;stroke-width:5.57059;stroke-dasharray:none;paint-order:markers stroke fill"
         id="circle1548"
         cx="572.77069"
         cy="353.15778"
         r="7.8034348" />
    </g>
  </g>
</svg>
