<?xml version="1.0" encoding="UTF-8" standalone="no"?>
<!-- Created with Inkscape (http://www.inkscape.org/) -->

<svg
   width="900mm"
   height="400mm"
   viewBox="0 0 900 400"
   version="1.1"
   id="svg347"
   inkscape:version="1.2.2 (b0a8486541, 2022-12-01)"
   sodipodi:docname="logo_hor_21.svg"
   inkscape:export-filename="logo_hor1.svg"
   inkscape:export-xdpi="96"
   inkscape:export-ydpi="96"
   xmlns:inkscape="http://www.inkscape.org/namespaces/inkscape"
   xmlns:sodipodi="http://sodipodi.sourceforge.net/DTD/sodipodi-0.dtd"
   xmlns="http://www.w3.org/2000/svg"
   xmlns:svg="http://www.w3.org/2000/svg">
  <sodipodi:namedview
     id="namedview349"
     pagecolor="#ffffff"
     bordercolor="#999999"
     borderopacity="1"
     inkscape:showpageshadow="2"
     inkscape:pageopacity="0"
     inkscape:pagecheckerboard="false"
     inkscape:deskcolor="#d1d1d1"
     inkscape:document-units="mm"
     showgrid="false"
     inkscape:zoom="0.25487671"
     inkscape:cx="1159.3841"
     inkscape:cy="1216.2743"
     inkscape:window-width="1920"
     inkscape:window-height="1011"
     inkscape:window-x="0"
     inkscape:window-y="0"
     inkscape:window-maximized="1"
     inkscape:current-layer="layer1" />
  <defs
     id="defs344">
    <marker
       markerWidth="0.52499998"
       markerHeight="0.99999994"
       refX="0"
       refY="0"
       orient="auto-start-reverse"
       id="CapTriangle"
       viewBox="0 0 0.525 1"
       inkscape:stockid="pin"
       style="overflow:visible"
       preserveAspectRatio="xMidYMid"
       inkscape:isstock="true"
       inkscape:collect="always">
      <path
         id="path7813"
         style="fill:context-stroke;stroke-linecap:butt"
         d="M 0,-1 1,0 0,1 -0.05,0 Z"
         sodipodi:nodetypes="sssssscsss"
         transform="scale(0.5)" />
    </marker>
  </defs>
  <g
     inkscape:label="Layer 1"
     inkscape:groupmode="layer"
     id="layer1">
    <g
       id="g1970"
       transform="matrix(1.0377552,0,0,1.0377552,-1.0801334,-7.0321663)">
      <g
         id="g1923"
         transform="matrix(1.2795813,0,0,1.2795813,-1319.02,263.27882)">
        <ellipse
           style="fill:#ff0000;fill-opacity:1;stroke:#ffffff;stroke-width:22.233;stroke-dasharray:none;paint-order:markers stroke fill"
           id="path3326"
           cx="1191.0654"
           cy="-28.964516"
           rx="71.46283"
           ry="70.06472" />
        <path
           id="ellipse6778-8"
           style="display:inline;fill:#ffffff;stroke:#ffffff;stroke-width:2.84719;stroke-linejoin:round"
           d="m 1318.4927,-49.843501 a 131.94496,132.02518 0 0 1 -131.945,132.025182 131.94496,132.02518 0 0 1 -131.9449,-132.025182 131.94496,132.02518 0 0 1 131.9449,-132.025189 131.94496,132.02518 0 0 1 131.945,132.025189 z" />
        <path
           id="path6766-0"
           style="display:inline;fill:#001c38;fill-opacity:1;stroke-width:1.06201;stroke-linejoin:round"
           d="m 1154.6965,-50.59988 c 54.3386,16.882655 110.7298,55.0158672 146.9437,-21.942494 -5.6461,64.9427428 -43.4896,98.533942 -111.6872,69.7105385 -68.1976,-28.8234035 -114.9578,0.6929769 -54.25,57.4484855 -39.1022,-23.552737 -58.5703,-64.3657328 -49.5311,-85.484738 7.3018,-17.059975 36.4171,-29.70738 68.5246,-19.731792 z"
           sodipodi:nodetypes="sczcss" />
        <path
           id="path6768-6"
           style="display:inline;fill:#008080;fill-opacity:1;stroke-width:1.14974;stroke-linejoin:round"
           d="m 1273.6448,-75.642455 c -30.7576,69.7640107 -110.5154,-89.240025 -175.1922,7.575323 -4.8801,8.610226 -8.3457,16.417864 -9.23,21.390587 17.7861,-25.584288 42.861,-21.690611 64.0686,-16.730777 0.4686,0.136355 0.9348,0.26275 1.4047,0.408683 1.6741,0.520168 3.389,1.078475 5.1254,1.655997 0.1693,0.05624 0.3298,0.103694 0.4997,0.160462 0.012,0.0029 0.018,0.0059 0.029,0.0088 1.9031,0.636502 3.8409,1.30379 5.8066,1.992036 0.012,0.0029 0.018,0.0059 0.029,0.0088 3.9413,1.380242 7.9967,2.849077 12.1218,4.341318 0.01,0.0029 0.018,0.0059 0.029,0.0088 2.0584,0.744619 4.134,1.494715 6.2213,2.243318 0.2549,0.09154 0.5138,0.181025 0.7689,0.272475 3.943,1.411086 7.9201,2.813766 11.9039,4.150597 0.01,0.0015 0.012,0.0044 0.018,0.0059 0,0.0013 0.01,0.0015 0.012,0.0029 2.1119,0.708502 4.2263,1.400043 6.3334,2.064709 0.01,0.0029 0.018,0.0059 0.023,0.0088 1.0499,0.331059 2.0989,0.65459 3.1455,0.971793 0.01,0.0029 0.018,0.0059 0.024,0.0088 2.1446,0.653286 4.2635,1.250844 6.2728,1.810396 0.012,0.0029 0.018,0.0059 0.029,0.0088 41.0053,10.616102 57.4428,2.057576 60.5563,-32.371449 z"
           sodipodi:nodetypes="ccccssscscssscsscscscccc" />
        <path
           id="path6772-6"
           style="display:inline;fill:#005f35;fill-opacity:1;stroke-width:7.85244;stroke-linejoin:round"
           d="m 1302.7533,-41.774636 c -5.4506,20.502788 -17.134,43.1636548 -36.4056,52.22306 -21.5289,10.355828 -45.2823,11.181234 -66.0849,3.659398 -18.2323,-6.6512309 -53.3852,-22.2194785 -72.089,-12.8927688 -7.4298,3.7049333 -9.572,14.3155138 -7.8009,21.8405418 4.081,17.339539 16.2581,28.235542 38.5343,37.026104 24.269,9.576996 63.7982,5.355688 87.9482,-9.246537 32.483,-19.640723 55.0472,-56.2262157 56.4269,-94.599461 z"
           sodipodi:nodetypes="sccsacscss" />
        <path
           id="path5601-5"
           style="display:inline;fill:none;stroke:#000000;stroke-width:6.73717;stroke-linejoin:round;stroke-dasharray:none;stroke-opacity:1"
           d="m 1132.0313,-153.80631 c 34.6476,-7.1468 68.2935,1.39846 86.5149,10.8316"
           sodipodi:nodetypes="cc" />
        <path
           id="path5665-9"
           style="display:inline;fill:none;fill-opacity:1;stroke:#000000;stroke-width:6.73717;stroke-linejoin:round;stroke-dasharray:none;stroke-opacity:1;marker-start:url(#CapTriangle)"
           inkscape:transform-center-x="-0.50941426"
           inkscape:transform-center-y="-1.759414"
           d="m 1085.2315,9.2430408 c -5.8094,-9.97179416 -10.1173,-20.7459418 -12.7849,-31.9746438 -14.9833,-63.070833 23.9682,-126.338897 87.0007,-141.313167 20.1054,-4.77631 40.7266,-4.08315 59.9209,1.51315 19.1944,5.5963 36.9619,16.09571 51.3602,30.9319 m -196.4395,115.820061 c -3.3472,-11.044528 -5.0483,-22.522637 -5.0483,-34.063842 0,-32.413087 13.13,-61.757629 34.3583,-82.998899 21.2284,-21.24127 50.5551,-34.37928 82.9485,-34.37928 41.3299,-1e-5 79.6102,21.76234 100.7688,57.28705"
           sodipodi:nodetypes="csssccsssc" />
        <path
           id="path5668-2"
           style="display:inline;fill:none;stroke:#000000;stroke-width:6.73717;stroke-linejoin:round;stroke-dasharray:none;stroke-opacity:1"
           d="m 1069.8044,-38.348446 c 7.5169,-34.146211 24.6082,-66.186424 68.2181,-81.063834"
           sodipodi:nodetypes="cc" />
        <path
           id="path6662-2"
           style="display:inline;fill:#df357d;fill-opacity:1;stroke-width:5.15297;stroke-linecap:square;stroke-linejoin:bevel;stroke-miterlimit:3.3"
           d="m 1297.4984,-108.72531 a 10.365025,10.252168 89.999959 0 1 -11.3782,9.084879 10.365025,10.252168 89.999959 0 1 -8.9862,-11.503489 10.365025,10.252168 89.999959 0 1 11.3784,-9.08489 10.365025,10.252168 89.999959 0 1 8.986,11.5035 z"
           inkscape:transform-center-y="0.8115289"
           inkscape:transform-center-x="1.1340174e-06" />
        <path
           id="path6716-8"
           style="display:inline;fill:#df357d;fill-opacity:1;stroke-width:5.09691;stroke-linecap:square;stroke-linejoin:bevel;stroke-miterlimit:3.3"
           d="m 1230.1663,-138.78707 a 10.252265,10.140636 89.999959 0 1 -11.2545,8.98604 10.252265,10.140636 89.999959 0 1 -8.8884,-11.37833 10.252265,10.140636 89.999959 0 1 11.2546,-8.98607 10.252265,10.140636 89.999959 0 1 8.8883,11.37836 z"
           inkscape:transform-center-y="0.80270208"
           inkscape:transform-center-x="1.1620773e-06" />
        <path
           id="path6732-9"
           style="display:inline;fill:#df357d;fill-opacity:1;stroke-width:5.09691;stroke-linecap:square;stroke-linejoin:bevel;stroke-miterlimit:3.3"
           d="m 1148.094,-118.21612 a 10.252265,10.140636 89.999959 0 1 -11.2545,8.98604 10.252265,10.140636 89.999959 0 1 -8.8884,-11.37834 10.252265,10.140636 89.999959 0 1 11.2546,-8.98606 10.252265,10.140636 89.999959 0 1 8.8883,11.37836 z"
           inkscape:transform-center-y="0.80270208"
           inkscape:transform-center-x="1.1620773e-06" />
        <path
           id="path6740-7"
           style="display:inline;fill:#df357d;fill-opacity:1;stroke-width:5.05511;stroke-linecap:square;stroke-linejoin:bevel;stroke-miterlimit:3.3"
           d="m 1080.3249,-46.680295 a 10.252243,9.9751725 89.999984 0 1 -11.0709,8.986043 10.252243,9.9751725 89.999984 0 1 -8.7433,-11.378311 10.252243,9.9751725 89.999984 0 1 11.0709,-8.986087 10.252243,9.9751725 89.999984 0 1 8.7433,11.378355 z"
           inkscape:transform-center-y="0.80268244"
           inkscape:transform-center-x="-1.532571e-06" />
        <path
           id="path6756-3"
           style="display:inline;fill:#df357d;fill-opacity:1;stroke-width:5.09691;stroke-linecap:square;stroke-linejoin:bevel;stroke-miterlimit:3.3"
           d="m 1151.5629,-155.69724 a 10.252261,10.140632 89.999959 0 1 -11.2545,8.98604 10.252261,10.140632 89.999959 0 1 -8.8884,-11.37833 10.252261,10.140632 89.999959 0 1 11.2546,-8.98607 10.252261,10.140632 89.999959 0 1 8.8883,11.37836 z"
           inkscape:transform-center-y="0.80269857"
           inkscape:transform-center-x="1.9736566e-06" />
      </g>
      <g
         id="g1940"
         transform="matrix(1.2795813,0,0,1.2795813,-903.30165,23.668415)">
        <path
           id="path6662-2-6"
           style="display:inline;fill:#df357d;fill-opacity:1;stroke-width:5.15297;stroke-linecap:square;stroke-linejoin:bevel;stroke-miterlimit:3.3"
           d="m 1133.0335,108.52425 a 10.365025,10.252168 89.999959 0 1 -11.3783,9.08488 10.365025,10.252168 89.999959 0 1 -8.9862,-11.50349 10.365025,10.252168 89.999959 0 1 11.3784,-9.084893 10.365025,10.252168 89.999959 0 1 8.9861,11.503503 z"
           inkscape:transform-center-y="0.8115289"
           inkscape:transform-center-x="1.1340174e-06" />
        <g
           id="g1576"
           transform="translate(550.08056,-245.84285)">
          <path
             d="m 511.90265,371.23105 q -2.93339,-13.72409 -16.34318,-13.72409 -9.324,0 -14.5622,7.12395 -5.2382,7.12396 -5.2382,19.8004 0,12.46692 5.02867,19.4861 5.13344,7.01919 14.24791,7.01919 7.33348,0 11.73357,-3.98103 4.40008,-3.98103 5.13343,-11.31451 h 15.29555 q -0.73335,13.0955 -9.53353,20.84803 -8.80017,7.64778 -23.04808,7.64778 -15.92413,0 -25.24812,-10.68593 -9.324,-10.79069 -9.324,-29.22916 0,-18.54323 9.42876,-29.33392 9.42876,-10.79069 25.56242,-10.79069 13.51455,0 22.1052,7.22872 8.69541,7.22871 9.74305,19.90516 z"
             style="font-weight:600;font-size:104.764px;font-family:FreeSans;-inkscape-font-specification:'FreeSans Semi-Bold';opacity:0.977364;fill:#001c38;stroke-width:13.6605;paint-order:markers stroke fill"
             id="path1550" />
          <path
             d="m 552.86544,345.35434 v 76.37295 h -14.66696 v -76.37295 z"
             style="font-weight:600;font-size:104.764px;font-family:FreeSans;-inkscape-font-specification:'FreeSans Semi-Bold';opacity:0.977364;fill:#001c38;stroke-width:13.6605;paint-order:markers stroke fill"
             id="path1552" />
          <path
             d="m 594.2474,365.15473 h 14.5622 v 7.01919 q 3.66674,-4.29532 7.12395,-6.07631 3.56198,-1.88575 8.38112,-1.88575 11.10499,0 15.40031,8.38112 6.28584,-8.38112 16.55271,-8.38112 8.48589,0 13.20027,4.60961 4.81914,4.60962 4.81914,12.88598 v 40.01984 h -14.66696 v -37.71504 q 0,-3.35244 -2.20004,-5.34296 -2.09528,-1.99052 -5.76202,-1.99052 -4.71438,0 -7.43825,2.9334 -2.6191,2.93339 -2.6191,8.17159 v 33.94353 h -14.66696 v -37.71504 q 0,-3.35244 -2.20004,-5.34296 -2.09528,-1.99052 -5.76202,-1.99052 -4.71438,0 -7.43825,2.9334 -2.6191,2.93339 -2.6191,8.17159 v 33.94353 H 594.2474 Z"
             style="font-weight:600;font-size:104.764px;font-family:FreeSans;-inkscape-font-specification:'FreeSans Semi-Bold';opacity:0.977364;fill:#001c38;stroke-width:13.6605;paint-order:markers stroke fill"
             id="path1556" />
          <path
             d="m 689.47778,421.72729 v -76.37295 h 29.85774 q 8.80018,0 14.45744,2.09528 5.76202,2.09528 9.63828,6.70489 9.324,11.10499 9.324,29.33392 0,18.43847 -9.324,29.33392 -7.43824,8.90494 -24.09572,8.90494 z m 15.7146,-13.0955 h 14.14314 q 17.70512,0 17.70512,-25.03859 0,-25.14336 -17.70512,-25.14336 h -14.14314 z"
             style="font-weight:600;font-size:104.764px;font-family:FreeSans;-inkscape-font-specification:'FreeSans Semi-Bold';opacity:0.977364;fill:#001c38;stroke-width:13.6605;paint-order:markers stroke fill"
             id="path1558" />
          <path
             d="m 776.32723,345.35434 v 63.27745 h 36.56263 v 13.0955 h -52.27723 v -76.37295 z"
             style="font-weight:600;font-size:104.764px;font-family:FreeSans;-inkscape-font-specification:'FreeSans Semi-Bold';opacity:0.977364;fill:#001c38;stroke-width:13.6605;paint-order:markers stroke fill"
             id="path1560" />
          <path
             d="m 579.95411,373.45494 v 48.27235 h -14.36677 v -48.27235 z"
             style="font-weight:600;font-size:85.9172px;font-family:FreeSans;-inkscape-font-specification:'FreeSans Semi-Bold';fill:#001c38;stroke-width:10.3843;paint-order:markers stroke fill"
             id="path1546" />
          <circle
             style="fill:#df357d;fill-opacity:1;stroke:none;stroke-width:5.57059;stroke-dasharray:none;paint-order:markers stroke fill"
             id="circle1548"
             cx="572.77069"
             cy="353.15778"
             r="7.8034348" />
        </g>
      </g>
    </g>
  </g>
</svg>
